Asylum Blackout 2011 DVDSCR AC3-2 0 XviD-SiC

IMDB Link: 
http://www.imdb.com/title/tt1027820/

Description:
A group of cooks at an asylum for the criminally insane get locked in with the inmates during a massive thunderstorm

MediaInfo:
General
Complete name: Asylum.Blackout.2011.DVDSCR.AC3-2.0.XviD-SiC.avi
Format: AVI
Format/Info: Audio Video Interleave
File size: 1.36 GiB
Duration: 1h 25mn
Overall bit rate: 2 293 Kbps

Video
ID: 0
Format: MPEG-4 Visual
Format profile: Advanced Simple@L5
Format settings, BVOP: 2
Format settings, QPel: No
Format settings, GMC: No warppoints
Format settings, Matrix: Default (H.263)
Muxing mode: Packed bitstream
Codec ID: XVID
Codec ID/Hint: XviD
Duration: 1h 25mn
Bit rate: 1 901 Kbps
Width: 720 pixels
Height: 304 pixels
Display aspect ratio: 2.35:1
Frame rate: 23.976 fps
Color space: YUV
Chroma subsampling: 4:2:0
Bit depth: 8 bits
Scan type: Progressive
Compression mode: Lossy
Bits/(Pixel*Frame): 0.362
Stream size: 1.13 GiB (83%)
Writing library: XviD 1.1.2 (UTC 2006-11-01)

Audio
ID: 1
Format: AC-3
Format/Info: Audio Coding 3
Mode extension: CM (complete main)
Codec ID: 2000
Duration: 1h 25mn
Bit rate mode: Constant
Bit rate: 384 Kbps
Channel(s): 2 channels
Channel positions: Front: L R
Sampling rate: 48.0 KHz
Bit depth: 16 bits
Compression mode: Lossy
Stream size: 234 MiB (17%)
Alignment: Aligned on interleaves
Interleave, duration: 64 ms (1.53 video frames)
Interleave, preload duration: 192 ms
Title: VTS_01_1 T80 2_0ch 384Kbps DELAY 0ms


Poster:

 
http://i.imgur.com/hDgYT.jpg


Screens:

 
http://i.imgur.com/Xdysr.png

 
http://i.imgur.com/LDZBG.png

 
http://i.imgur.com/Kqtkr.png


ENJOY!